/* XPM */
static char *_a69dfff0633466eb84540fe2a52c25eC7HjD0gcfMdjLnqI[] = {
/* columns rows colors chars-per-pixel */
"43 50 33 1 ",
"  c #ECCC9C",
". c #EECEA0",
"X c #E9C99A",
"o c #E1BD8A",
"O c #DEBA86",
"+ c #E5C494",
"@ c #E2C292",
"# c #E7C696",
"$ c #E0BF8F",
"% c #DDBC8C",
"& c #EAC896",
"* c #D9B889",
"= c #DAB682",
"- c #C7A371",
"; c #E5C28F",
": c #EECE9D",
"> c #F4D4A5",
", c #D7B37F",
"< c #D2AE7C",
"1 c #CFAC7B",
"2 c #CAA674",
"3 c #F1D1A2",
"4 c #CDA977",
"5 c #C49F6C",
"6 c #F7D8A9",
"7 c #D6B485",
"8 c #BB9663",
"9 c #D3B180",
"0 c #BF9A68",
"q c #B38F5C",
"w c #AB8653",
"e c #9F7945",
"r c #8D6531",
/* pixels */
"<;++&;=,@@@+X :: 6636666>@$:>63#&#+;+#o9= >",
"Oo;;;95,+#&&&&&X>3666636 +@@#3>::33 #;O==#3",
"o=,;902<<=o;$; >63>6. . +X X$%$#6>>>XoO;=99",
",<,5q4O,=,=o >6>.3:6>XX*%#363& 6>66> ;$;&,1",
"eqwq5<;&#&:>66>>#X#X3:#$ .3>66>>3> *9O;# ;$",
"qw8-,OO ::3>>.@*$+#9*:#  XX.>66>3@<21O&3X&#",
"55-1<o:+#XX+*99,*%$,7+#X>3>6>3>>;,<O+&X:::X",
"22<=Oo$+$O,4-4=;&%9;O9#:>66.+ .@9=;;;;+@;#&",
"<,==oo<925529O@#&*%X++:.33&*<9,,o;+&X #o;;+",
"=<O;=<<-24,O$; 3@$+X##.3#*9O$O*o#&  33:+OOo",
",O=o#O===O$$;&XX@  #&: @%*%+XX&XX     #o===",
"O=,O#&&o%+&#&::&:3 & #%%%#  X.. :::: +$o;oO",
"9,==o #%+& : @74$  +++++  :33>>33:::X@;& +$",
"5-48w5=##+&:#,2227$@X3>.3  3>333:   #;+ :&+",
"w88qwwq4$#&$92<O<29X3333:.:: && & :X++++;$;",
"5qw0-5505-0q0,oo;o;@$ 3#*77*7449*+X+$;o=052",
"14--21<1-q854*@  XX#%*$$$%=9,*=9149Oo;o<<25",
"=9,=,,=O<24<7$#33> @%77+.:X+@@;$;=251oo,O=,",
"o=oo,=;;=,=O+  . .3@9*X 333.  :.@$74585OOOO",
"oOO=O;+O97*@.3XX..  +**X>>>>>>3.3 $*=91<;+#",
"=OO=OO459*@X X+#@+#X.#*9$ 66>3>>6X@@;oO==o+",
"-,OO*1-4%$@#X+@@754@. +%9%X3>>33X%$ &+##O$;",
"w85214,;#+$$@@$*2<22$. X%1-1%%712*&&@+X&:X+",
"88859;&#XX+$**%1<7711@3 ;922-527%X: :X# > #",
"422=# &&X X**<-1*%$*7%X>X%%%*7%@X33.>>3.X#&",
"<,o;;#X#+.:$742*$$+X@*7*%%$@@@# 3>>33>3 #O,",
"%$o@+%%+@@.X%*$$+@#..$91*@###X .333. ..Xo1-",
"=o;954%%7%+XX+@##X ...+%+..X ..33. XX+@@;O,",
",O1880-148-%@# ## 3..3.X.3.X...3. ++X@%##;$",
"<88--00808q-@. @%$#.3..33.  .... #@@#$$&::X",
"q0-1792-5421*#X$*97$  .>333333.XX++@%*=9o&:",
"41,OO*,1<717#++.;,49$# 3  .. .X@%*@$7*=--O ",
",O$$%$%*O7%*7*$X.+*19$# X#XX$$%1-<=,=%*<-5O",
"=OOO;%%+%%+%251+33+*2-%+++%7*79*<7%%%*7915-",
"===,OO%%@@#@714<X#.+720-51***%%%%7<14217=<2",
"q8029,,O@@#X@%94%. #@9-0851*$#   @***7*%Oo,",
"ewq--8q-*%@X#@*4-$ #$%*911-<# X3X#@@@@%*$+=",
"q8-1qeew59$@@X#788*X+@%***79$ ....X@@+;Oo+o",
"8540ww8we07@#X+<-qq7+$#$$$+*1*X&XXX+$O*==o$",
"840eq800qww59*%7-5qq<+@X@+#@<0-7#@$%,1<=oOO",
"-wew0544-8wwwq8-912559@##XX #<qwq-9*$@@@;40",
"wew542,%158q88517<4247$+. #X $20q81#3:#+=5q",
"08854=O994----<*%77*%*%X$#XX#$1-2-9# &#@-55",
"=424<==,914441*$%%$+#%*@@@@@@$7199*@##o<0-4",
"124<9,=**7997*$@*%$#X$99**71--1=7*91974019,",
"-442411499<<9****$$@#@<528www0<%%@758q85<=O",
"q5212802<977=*=77%@$@@90wwq051%@%@$<8q0<,oo",
"e0550q522<779<421*@$*%,580-227@@@@@*085<oo=",
"re88q5-051<<40qq2<7*-885-2417$@%O*%<5542117",
"rrew80qw0---58q0-4<4wew-1<99*$%**9-q0242419"
};
