/* XPM */
static char *ca74d88e83274c9e83f8bc3e7f1ee040QBsFmvh8wQSqrZmx[] = {
/* columns rows colors chars-per-pixel */
"43 50 220 2 ",
"   c #210E02",
".  c #271306",
"X  c #2C1404",
"o  c #2E1B0B",
"O  c #361806",
"+  c #341A06",
"@  c #361D0A",
"#  c #2F0819",
"$  c #381618",
"%  c #37200E",
"&  c #3C210A",
"*  c #352314",
"=  c #370629",
"-  c #3B0335",
";  c #3C003C",
":  c #431D07",
">  c #431719",
",  c #43250C",
"<  c #492708",
"1  c #4C2A0C",
"2  c #4E2B11",
"3  c #4A2A16",
"4  c #532E16",
"5  c #4F3115",
"6  c #43301E",
"7  c #533214",
"8  c #59361A",
"9  c #613E1F",
"0  c #4D1C27",
"q  c #511624",
"w  c #4B0D33",
"e  c #4A3926",
"r  c #633C29",
"t  c #694524",
"y  c #6F4C2A",
"u  c #75522E",
"i  c #6A553A",
"p  c #785731",
"a  c #440144",
"s  c #4C0A46",
"d  c #4B034B",
"f  c #59084B",
"g  c #560456",
"h  c #560956",
"j  c #5D0A5D",
"k  c #571356",
"l  c #5B2D4A",
"z  c #7E255C",
"x  c #673059",
"c  c #630563",
"v  c #640B64",
"b  c #6B066B",
"n  c #6A0C6A",
"m  c #6A166A",
"M  c #761C63",
"N  c #770575",
"B  c #730A73",
"V  c #7D0C7D",
"C  c #731473",
"Z  c #781678",
"A  c #692368",
"S  c #742B66",
"D  c #753668",
"F  c #7E237A",
"G  c #7B367A",
"H  c #735F46",
"J  c #714A57",
"K  c #766247",
"L  c #784566",
"P  c #7E5075",
"I  c #8F6832",
"U  c #821073",
"Y  c #842C77",
"T  c #856A47",
"R  c #8B6C4F",
"E  c #9E7947",
"W  c #897355",
"Q  c #977C57",
"!  c #A37D49",
"~  c #85486A",
"^  c #85536A",
"/  c #824677",
"(  c #8B5776",
")  c #925977",
"_  c #8A6765",
"`  c #916E6C",
"'  c #967667",
"]  c #9D7375",
"[  c #A37479",
"{  c #A8834E",
"}  c #AB8552",
"|  c #AE8955",
" . c #A88659",
".. c #B38C56",
"X. c #B38D5A",
"o. c #B6905E",
"O. c #B9925E",
"+. c #A98A69",
"@. c #B69262",
"#. c #BB9663",
"$. c #BE9965",
"%. c #B5976F",
"&. c #BE9A68",
"*. c #AC8976",
"=. c #AE9272",
"-. c #BC9C73",
";. c #B59878",
":. c #BBA077",
">. c #BEA27B",
",. c #C19B67",
"<. c #C39E6B",
"1. c #C6A16E",
"2. c #C9A36F",
"3. c #C6A371",
"4. c #CAA572",
"5. c #CEA976",
"6. c #C3A47A",
"7. c #C7A87C",
"8. c #CDAA7A",
"9. c #D1AB77",
"0. c #D2AE7B",
"q. c #D5B17E",
"w. c #D8B37F",
"e. c #850585",
"r. c #860A86",
"t. c #851685",
"y. c #8D1B8D",
"u. c #940695",
"i. c #961996",
"p. c #9C129C",
"a. c #8A268A",
"s. c #883388",
"d. c #9B289A",
"f. c #9F349F",
"g. c #A607A6",
"h. c #A41BA4",
"j. c #AA15AA",
"k. c #BD0FBD",
"l. c #B51AB5",
"z. c #A928A9",
"x. c #A937A9",
"c. c #B435A4",
"v. c #B32EB3",
"b. c #965986",
"n. c #A34790",
"m. c #8F618D",
"M. c #94658B",
"N. c #A87697",
"B. c #A747A7",
"V. c #B255AE",
"C. c #BB54BB",
"Z. c #A86CA7",
"A. c #B465B3",
"S. c #BF2AC0",
"D. c #CD18CD",
"F. c #C32AC3",
"G. c #CA27C8",
"H. c #D12BCA",
"J. c #C534C5",
"K. c #D22BD2",
"L. c #D836D8",
"P. c #E324E4",
"I. c #E838E9",
"U. c #F825F8",
"Y. c #CF48CD",
"T. c #CD71CD",
"R. c #DD63DD",
"E. c #E646E6",
"W. c #E557E5",
"Q. c #F253F2",
"!. c #E869E9",
"~. c #E47AE4",
"^. c #F966F9",
"/. c #FC76FC",
"(. c #B38787",
"). c #BD9D86",
"_. c #A58390",
"`. c #BEA384",
"'. c #AE8EA4",
"]. c #C4A384",
"[. c #C4A984",
"{. c #CAAD84",
"}. c #CFB185",
"|. c #CFB18B",
" X c #D5B382",
".X c #D9B683",
"XX c #DDB986",
"oX c #D2B58C",
"OX c #D8B889",
"+X c #DDBB8B",
"@X c #DEBE91",
"#X c #D9B798",
"$X c #E0BC87",
"%X c #E1BE8C",
"&X c #E0BF90",
"*X c #DFC195",
"=X c #E3C18E",
"-X c #E4C393",
";X c #E8C795",
":X c #E9C996",
">X c #E6C699",
",X c #E6C89B",
"<X c #ECCB9B",
"1X c #F0D09F",
"2X c #EFCFA1",
"3X c #EFD1A2",
"4X c #F2D3A4",
"5X c #F6D7A8",
"6X c #F7DAAB",
"7X c #BF85C0",
"8X c #D188D1",
"9X c #D599D5",
"0X c #D8A9D7",
"qX c #D4B1D4",
"wX c #E891E8",
"eX c #F692F6",
"rX c #E8AAE9",
"tX c #F9AAF9",
"yX c #F1CFF2",
"uX c #FFC9FF",
/* pixels */
"q.%X=X;X;X=Xw.w.=X=X-X-X:X<X<X<X1X5X5X4X5X6X6X6X4X;X=X<X4X4X3X<X:X;X;X%X;X;X$Xw.w.:X1X",
"$X=X=X=X=Xw.2.w.=X=X-X;X:X:X:X<X1X4X6X6X5X4X5X3X<X-X-X-X<X1X1X<X1X1X1X<X;X%X$X$X$X;X1X",
"$Xw.$X$Xw.1.9.9.q.=X=X=X=X=X:X4X5X5X5X5X4X3X<X<X-X;X<X<X=X=X=X<X4X5X4X4X:X%X%X$X$Xw.w.",
"0.0.9.<.#.9.w.w..Xw.w.=X<X4X6X5X1X<X1X4X3X<X,X+X=X,X4X4X1X<X<X4X4X5X5X1X<X%X%X;X%Xw.9.",
"........1.w.=X;X:X:X<X4X5X5X4X<X:X:X:X:X3X*X|.{.-X<X3X4X5X4X5X5X4X4X<X$Xw.w.%X:X1X%X$X",
"....O.2.9.w.=X;X:X1X1X1X3X<X;X=X=X-X=X X*X>._ _ oX<X:X4X4X5X5X4X1X%Xw.9.w.$X:X:X1X:X;X",
",.,.9.9.w.$X;X;X-X;X:X;X=X0.0.q.=X=Xq.0.6.*.m.m.).2X3X4X4X4X4X3X;Xw.w.$X$X;X:X1X:X:X:X",
"2.9.9.w.w.$X=X=X=X=Xq.9.3.9. X=X=X=Xq.*X=.'.yX0XN.#X5X1X;X:X<X=Xw.$X%X%X:X%X;X:X;X;X:X",
"w.9.w.w.=Xw.w.9.9.2.2.5.0.=X=X:X;X+X%XoX_.qXuXtXC.(.-X+X X Xq..X$X%X<X%X1X1X%X%X%X%X%X",
"w.w.$X=X$X9.9.4.9.9.w.w.=X-X;X:X-X+X=X=.M.rXtX/.E.n.-.XX%X+X+X%X;X%X1X<X1X1X1X;X%X%X%X",
"w.$Xw.$X=X$Xw.w.q.=X=X=X;X,X<X<X;X,XoX) s.A.tX/.U.F.[ +X:X:X:X:X;X1X<X1X<X1X%X%X$X$X$X",
"$X$Xw.$X;X;X;X=X=X-X;X;X:X:X,X;X:X1X{.D d.s.~.^.D.j.( -X2X2X2X<X1X1X<X1X<X%X%X%X%X$X%X",
"w.w.w.w.$X;X=X=X=X;X<X1X:X;X Xq.=X:X[.D d.C x.E.g.b ^ >X2X4X2X4X1X1X<X1X1X%X%X:X1X%X%X",
",.2.9.,...,.w.=X=X;X:X:X;Xq.4.4.5.OX:.D z.Z V i.p.N ^ >X4X2X2X2X1X1X<X<X:X:X%X1X1X:X%X",
"..O.O.O.....O.9.=X-X-X=Xq.8.q. X8.&.+.S z.u.c b S.j.^ >X<X:X:X<X;X<X1X:X%X%X:X%X%Xw.%X",
",.O...,.2.1.,.2.1.1.&.$.&.q.=X=X}.' J A d.h.B y.W.J.~ }. X0.0.q.$X%X;X:X:X%X%Xw.9.2.w.",
"5.4.2.2.5.5.9.9.3.$.#.&.5.w.*X`.).M.m.F t.p.B B./.S.~ 8. XOX.Xq.0.0. X.X%X&X$X X9.2.2.",
"w.q.w.0.q.0.=X X0.3.9.8.w.*X*X_.( 0XrXB.C y.v C./.S.( oX-X-X*X-X&X.X9.2.9.$X$XXXXX.Xw.",
"=XXXXX=X.X=X=X=X.Xq.q.=X*X:X`.N.7XtXwXs.B p.c C.Q.S.( *X2X<X<X<X>X%X.X5.<.<.4..X$X%X$X",
"w.=X.X=Xw.=X=X=Xq..X=X*X<X*X` Z.9XT.Y.B N p.g f.I.S.) 2X3X4X4X4X4X&X&X$X.X0.9. X%X%X%X",
"w.=XXXw.=X.X9.1.0.OX*X:X3X;.l A G F p.r.b V d Z F.G.) *X3X3X3X5X4X2X%X&X&X%X$X.X$X%X&X",
"4.w.w.w.OX9.3.9.=X=X*X*X*X .s k g g p.h.j b h F v.l.) @X[.`.#X2X&X%X%X<X;X;X&X;X%X%X%X",
"..#.4.9.9.q.w.=X-X-X-X*X#X_ m y.B c G.v.v B h Z.f.u.Y +.^ L *.7.{..X&X>X&X<X:X:X1X1X%X",
"#.O.$.2.q.=X-X,X:X<X*X7.' J k h.t.n L.z.B e.h Z.f.g.S _ '.A.b.-.%X<X4X2X<X<X:X<X1X&X<X",
"5.4.4.q.-X;X<X:X:X<X*X*.P P G i.V m W.z.B e.A A.d.g.B G 0XtXC.(.,X3X3X3X4X4X3X<X;X;X;X",
"q.q.=X=X*X;X;X:X*X:X|._.qXqX8Xa.b m R.d.j b Z.wXd.u.B a.V.rX~.V.#X4X3X4X4X4X3X2X&X$X.X",
"=X=X=X=X=X=X=X*X*X*X(.8XyXuXT.y.b A B.i.d h Z.eXv.u.b y.F V.C.d.(.,X2X2X2X2X<X:X%Xq.2.",
"w.=X=X8.-.8.q.=X=X>.( 9XtXwXx.j.B Z B V a d V./.L.u.n a.m m r.V D |.2X<X>X>X&X;X%X$Xq.",
"q.=X0.$.#.&.3.9.8. .x f.B.z.p.g.c t.N e.; a s.W.L.V t.h.n b j.u.S {.>X>X<X&X&X&X;X&X%X",
"4.&.$.1.3.1.&.&.&. .l e.r.e.j.g.g r.N u.; a F Y.L.m a.h.C d.P.l.) OX>X&X&X&X&X&X<X<X<X",
"O.$.3.8.0.8.9.3.3.+.A S.k.k.K.j.d g c N a d C H.K.j t.V s.R.I.d.(.&X&X&X%X%XOX.X%X:X<X",
"4.0.q..X=X=Xq.8.0.%./ E.I.P.I.l.d ; w g d a m z.l.h v c s.^.L.Y ;.&X&X&XOX$X.X9.2.$X<X",
"w.w.=X=X=XOX=X}.OX%.P !.E.G.H.p.a = > q w - n i.u.a d f Y Y.l.Y +. X X XOXOXOX0.2.2.XX",
"XX=X=X.X=X=X=X=X=X:.J Y.c.z z f - # 9 r $ - t.u.N ; ; > 0 z M ] 8. XOX+X$XOX Xq.9.2.2.",
"w.q.0.q.OX=XXX=X=X>.x s.Y 4 7 $ = $ y y 4 0 U U f - = 3 1 , 0 =.-XOX X X0.8.0. X.X0.4.",
"..$.&.4.0.q.q.XX=X>.l s 4 p T 7 = O 7 9 u r q q $ # > y y < 6 ;.>X@XOX XOX.XOXXX$X.X.X",
"{ { #.&.4.#.X.>.OX}.K $ : u R 8 # X 2 9 t t < + , > 4 t t , K oX2X;X>X&X&X&X%X+X%X%X$X",
"} o.&.4.o.{ { { &.}.).e X 2 t 2 X X 7 y < 8 8 & 8 2 8 1 < 6 =.<X2X2X,X>X-X;X&X%X%X&X%X",
"#.1.5.$.{ ..o.| { &.7.W o @ 1 1 & X 1 t < < & + 2 , , @ @ i }.,X>X>X>X&X&X%XXX X$X$X%X",
"$.&.$.{ ..$.&.$.o. . . .i 5 X < , X @ 7 + + + , < + X 6 i Q 6. X@X@X&X+X X0. XXX$XXX.X",
",...E } &.&.8.8.3.@. .{ Q i o o % % X % X X & 8 3 * * H 7.:.$.o.@.3..X%X%X%X&X&X$X X,.",
"{ { } $.4.8.q..X8.1.$.@.O.{ T K 6 o     . X & 5 o * W :.*X=X>.$.,.,. X&X&X1X1X&X.X,.,.",
",.#.$.$.0.w. Xq.q.8.3.1.1.:.7.7.K e e e 6 @ X % e H {.*X:X*X8.6.1.3..X&X4X2X&X%X2.,.2.",
"9.5.4.4.5.=X.X.X X0.8.8.5.0..X*X:.=.:.%.W % . *  .>.=X*X*X=X X8.{. XXX&X&X&X#X9.1.4.4.",
"9.5.5.9.9.w..X.XOXq.}.q. XOX=X+XOXOX*X*X>.K i K :.OX}.8.7.4.8.w..XXX X8. X X2.,.4.9.w.",
"2.5.4.5.5.5.9.8.q.}.q. XOXXXOXOX+X@X*X-X*X{.-.@.:.@.X.| X.$.q.*X#X$X.X<.,.O.,.2.w..XXX",
"O.,.2.4.1.$.&.7.8.q. X XOXOX X X X+X*X-X*X*X X&.| | o.&.&.8. X*X&X&X&X{.,...,.9..XXXXX",
"! $.,.2.$.O.1.4.4.8. X X0.8.5.7.8.OX=X+X+X X X1.$.$.:.3.7. X=X*X&X&X%X.X,.,.2.9..XXX.X",
"I ! O.O.O.,.,.,.2.9.0.q.5.&.o.O.1. X.X X5.@.&.:.:.4.5.q. X*X*Xq.%X+X#X9.<.2.2.8.{.}. X",
"I I ! { O.,.O.O.$.&.:.4.:.O.O.,.:.8.0.5...{ | 3.0.q.q.q..X*X=X*XOX X1.o.<.4.9.].].{.q."
};
