/* XPM */
static char *_1f52238306845d4ea3a2ec681f8b56d7RaqEh04Tn85OmDL[] = {
/* columns rows colors chars-per-pixel */
"43 50 208 2 ",
"   c #262243",
".  c #2B2342",
"X  c #26254B",
"o  c #29264C",
"O  c #2A294E",
"+  c #332442",
"@  c #3B2542",
"#  c #3E2945",
"$  c #3D3446",
"%  c #3E3648",
"&  c #262650",
"*  c #272854",
"=  c #2A2A54",
"-  c #2A2C5C",
";  c #302954",
":  c #332C5C",
">  c #392E5E",
",  c #2B315C",
"<  c #3C3858",
"1  c #2B2E63",
"2  c #342D62",
"3  c #2D3264",
"4  c #2F3A67",
"5  c #2E356B",
"6  c #383967",
"7  c #313B6D",
"8  c #2E3771",
"9  c #313B73",
"0  c #393877",
"q  c #432642",
"w  c #4B2742",
"e  c #442A45",
"r  c #4C2B45",
"t  c #512743",
"y  c #542B45",
"u  c #5D2A44",
"i  c #532F48",
"p  c #47334A",
"a  c #563149",
"s  c #5A3149",
"d  c #423D5A",
"f  c #632C45",
"g  c #6C2D46",
"h  c #712F47",
"j  c #64344B",
"k  c #6C354B",
"l  c #6B3B4F",
"z  c #73354B",
"x  c #76374C",
"c  c #693B50",
"v  c #763D51",
"b  c #7A3E52",
"n  c #413D60",
"m  c #423E78",
"M  c #334275",
"N  c #3C4372",
"B  c #3E4977",
"V  c #34417C",
"C  c #35497E",
"Z  c #484157",
"A  c #524A5C",
"S  c #7E4153",
"D  c #665759",
"F  c #715F5E",
"G  c #484866",
"H  c #5C5564",
"J  c #414F7B",
"K  c #535775",
"L  c #695D66",
"P  c #6C636E",
"I  c #76696C",
"U  c #7F706F",
"Y  c #6E6671",
"T  c #716A74",
"R  c #7B767C",
"E  c #8F6832",
"W  c #803E51",
"Q  c #864355",
"!  c #884656",
"~  c #8D4857",
"^  c #8D4958",
"/  c #934D5C",
"(  c #96505D",
")  c #9E7844",
"_  c #967859",
"`  c #A07A45",
"'  c #A47E4A",
"]  c #89766B",
"[  c #927D6C",
"{  c #897974",
"}  c #9E805F",
"|  c #A8834E",
" . c #AB8552",
".. c #AF8955",
"X. c #B38C56",
"o. c #B48E5A",
"O. c #B6905D",
"+. c #B9925E",
"@. c #9E8265",
"#. c #9A8777",
"$. c #A38665",
"%. c #A4886A",
"&. c #AA8E6D",
"*. c #B48F61",
"=. c #AD916E",
"-. c #B49062",
";. c #BB9662",
":. c #BE9965",
">. c #BF9A69",
",. c #A68D74",
"<. c #AE9372",
"1. c #B19677",
"2. c #B59B7C",
"3. c #BFA078",
"4. c #C19B67",
"5. c #C39E6A",
"6. c #C29F70",
"7. c #C6A16E",
"8. c #C9A36F",
"9. c #C5A272",
"0. c #CBA572",
"q. c #CEA976",
"w. c #C2A47C",
"e. c #CDAA7A",
"r. c #D1AB77",
"t. c #D2AE7B",
"y. c #D6B27E",
"u. c #D8B37F",
"i. c #463D88",
"p. c #463D89",
"a. c #364583",
"s. c #364984",
"d. c #384E85",
"f. c #374B8A",
"g. c #394D8C",
"h. c #3A558B",
"j. c #3B528C",
"k. c #3B5393",
"l. c #3D5B94",
"z. c #3E5C9A",
"x. c #4A428A",
"c. c #4B4889",
"v. c #435786",
"b. c #4D4890",
"n. c #415D91",
"m. c #565399",
"M. c #58569D",
"N. c #635F9E",
"B. c #506288",
"V. c #41639E",
"C. c #64609F",
"Z. c #5957A0",
"A. c #5E5EA5",
"S. c #605FA5",
"D. c #4265A1",
"F. c #446BA6",
"G. c #456DA9",
"H. c #4770AF",
"J. c #4A78B6",
"K. c #6766A7",
"L. c #726CA4",
"P. c #7872A5",
"I. c #7471AC",
"U. c #696DB1",
"Y. c #6C70B2",
"T. c #B59E85",
"R. c #B99F81",
"E. c #BEA485",
"W. c #8686BB",
"Q. c #8886B8",
"!. c #928CB6",
"~. c #C9AC83",
"^. c #C7AD8A",
"/. c #C6AD8D",
"(. c #D0AE81",
"). c #CDB28B",
"_. c #D5B382",
"`. c #DAB683",
"'. c #DDB986",
"]. c #D3B68E",
"[. c #D8B789",
"{. c #DDBB8A",
"}. c #D7BB93",
"|. c #E0BC87",
" X c #E1BE8C",
".X c #E1BF90",
"XX c #DBC29A",
"oX c #E3C18E",
"OX c #E5C493",
"+X c #E8C794",
"@X c #EAC996",
"#X c #E5C699",
"$X c #E8C99B",
"%X c #EACA9A",
"&X c #ECCB9B",
"*X c #EDCC9A",
"=X c #F1D09F",
"-X c #EFCFA1",
";X c #EFD0A1",
":X c #F1D1A1",
">X c #F2D3A4",
",X c #F4D5A6",
"<X c #F6D7A8",
"1X c #F7D9A9",
"2X c #F9DDAE",
"3X c #9F9CC3",
"4X c #A09EC3",
"5X c #AEAAC8",
/* pixels */
"y. XOXOX+XOX`.`.oXOXOXOX%X%X*X*X;X,X<X,X1X2X2X1X:XOXoX%X,X,X:X%X@X+XOXOXOXOX Xt.`.&X=X",
"|. XoXoX Xy.8.y.oXOXOXOX@X%X@X*X:X>XXX/././././.OXOXOXOX%X:X:X*X*X:X:X*XOX X X'.`.+X*X",
" X`.`.'.y.7.q.t.y.'. X XoXoX%X,X#X/.I G Z Z G G #.~.OX*XOX XOX%X,X<X,X:X@X X X X'.y.`.",
"t.t.r.5.:.0.u.'.`.`.'.oX*X:X,X].] H v.G.j.5 D.F.G L ,.%X:X%X%X:X,X,X,X,X*XoX XOXoX`.t.",
"| X.o.o.5.y. X+X@X@X*X:X,X1X].P 6 - k.G.j.5 D.G.9 - G #.;X,X,X,X:X:X%X'.y.`.oX@X@XOX X",
"X.X.+.5.r.'.oX@X*X*X:X:X=X%X{ n.V.- V k.V 3 g.g.3 M F.K /.1X<X,X=XOXy.r.t. X@X*X*X@X+X",
"5.5.0.r.`.'.OX@X@X@X@XOX{.%.B.H.D.4 4 s.9 - a.V - d.G.G.R }.,X:XOXy.`.'. XOX*X*X&X*X@X",
"0.0.r.u.'. XoXoX X{._.q.$.G V.z.j.3 * 5 - = 3 3 - V l.D.v.U OXOX`.'. XOXOXOXOXOXOX+X@X",
"y.y.u.`.'.'.u.t.q.8.8.0.F 5 k.k.s.-   & X   X & X 5 j.l.s.< &.`. XOXOX@X*X*XOXoX XoXOX",
"y.u.'. X'.y.q.0.q.r.y.e.H 3 9 g.7 X . .     . . . - a.s.3 4 [  XOX@X&X&X*X:X*XOX X'. X",
"`.`.`. X X'.`.`.`.'.oX2.v.l.1 5 *   w u @   w u +   3 5 7 D.T OX%X*X*X*X*X&X+X X'.`.'.",
"`.'.`. X+X@XOX X XOXOX#.h.D.7 *   . u x w . f z q   & - h.D.K ].*X*X*X*X&XOXoXoXoX X'.",
"y.u.y.u. XOXOXOXOX@XOXT l.z.M   + + x ~ y + x ^ y + . = l.z.v.T.:X*X*X*X%XoXoX@X@X+X X",
"5.0.q.:.o.7.`. XOX@X).G a.g.3 . w @ S ( a + S ( s q @ X V g.9 { *X*X*X*X@XOXOX@X*X@XoX",
"X.+.;.o.X.o.;.q.{.OXE.n 5 9 = @ u @ S ( a + S ( s q u . 3 9 1 I OX*X*X%XOXOX+XOX X|.oX",
"4.+.o.4.5.5.5.5.9.7.-.Z * -   y f @ S ( a + S ( s q g @ X - = ] `.oX@XOXoXoXoX`.8.5.r.",
"q.0.0.0.q.r.t.r.7.:._ < - X . k z @ S ( a + S ( s w b w   = 1 L e.t.y.`. XoX Xy.t.0.8.",
"`.y.y.y.y.`.'.'.t.0.%.B z.3 @ W b @ S ( a + S ( s r ^ j o C l.P [.`.e.7.t.{.{.`.`.`.y.",
" X'.'.{.`.'.oXoX`.y.<.J H.C @ ! S @ S ( s + S ( s r / j = D.D.Y OX X`.q.5.5.0.`. X{.'.",
"'. X{.{.'. XoX{._.'.<.N l.V + Q v @ b / i . b / i w ^ j = k.f.Y $X%X X`._.t.t.y. XOXOX",
"`.'.'.'.{.'.e.7.t. X2.N k.9 . s r . a l +   i l @ + j e = g.f.Y &X*XOXoXOX{.{.`.`.oXOX",
"0.y.`.`.`.q.8.t.{. X2.6 s.5 o : : : : > : : : > : : > ; = V V P OX X X%X+XOXOXOX X XOX",
"..;.7.q.q.t.`. XOXOXR.6 5 - 6 m.m.m.m.m.m.m.m.N.L.P.N.c.= 1 1 L q.`.+X%XOXOX%X%X*X@XOX",
";.;.:.9._. XOX%X%X%X).A & X m U.U.U.U.U.U.U.U.W.3X5XW.A.= X = ] {.#X-X*X%X%X%X&X=X*X@X",
"0.0.q.`.OX@X%X@X%X*X^.G M , m U.U.U.U.U.U.U.Y.W.4X5XW.M.: 4 7 U #X;X>X-X>X,X:X*X%X@X+X",
"y.y.'.OXOXOX+XOXOX*XE.v.J.d.0 Z.A.A.A.A.A.A.K.I.Q.!.I.b.5 F.G.Y $X,X>X>X,X>X:X*XOX{.`.",
"'.{. XoX{.{. XOXOXOXE.B z.V 2 p.p.p.p.p.p.p.p.x.x.x.x.0 1 k.k.Y &X>X;X-X&X*X$X%X Xt.0.",
"'. X X_.9.e.'.{.[.{.2.N k.9 O 2 2 2 2 2 2 2 2 2 2 2 2 : * g.f.Y &X-X$X$X#XOXOXOXoX'.y.",
"`.`.t.4.:.>.9.e.e.5.@.N g.9 . q q   q t +   q t + . w + = f.s.Y %X$XOXOXOXOXOXOX+XOX X",
"0.5.:.7.9.7.5.:.:.>._ 6 9 3 + f u + f h w . f h w q g t O 5 8 P #X%XOXOXOX X XOX%X%X@X",
";.4.0.t.y.t.q.9.9.0.=.d - X @ x k @ z Q y + z Q y w W u   - - ] #X#XOXOX{.{.`.`. X%X*X",
"0.t._.'.{.'.y.t.t._.3.A * X @ ! b @ S / i + S / s r / j   = = [ {.{.{..X`.`.`.0.0.{.@X",
"y.`.{. X{.{.{.{.{.'.1.J D.M @ ! S @ S ( a + S ( s r / j O l.l.L 9._.`.`.[.{.`.t.0.9.'.",
"'.'.{.{.{. X X X XoX2.J H.s.@ ! S @ S ( s + S ( s r / j = D.D.L (._.`.{.{.`._._.r.9.8.",
"y.y.y._.'.{.{.{.{.OXR.N k.9 + Q v @ b / i . v / i e ^ j = g.f.L [.[._._.t.e.t.`.`.t.0.",
"o.;.5.0.t.y._.`.{.OXE.N k.9 . s r . i l +   i l + + j # = g.f.P OXOX{.`.`.`.`.{.{.'.`.",
") | +.5.7.;.O.0.`. X2.N k.9 O > > : > > : : > > : : > ; * g.f.Y #X%XOXOXOXOX{.{. X X{.",
"..;.5.0.O.| '  .>._.1.6 V 4 6 m.m.m.m.m.m.m.m.C.L.P.K.c.- 9 9 P #X$X%XOXOXOX{.{.{.oX X",
":.5.0.:. .o.O...| >.<.6 1 * m U.U.U.U.U.U.U.U.W.3X5XW.A.: - 1 I #X$XOXOX X{.{.`.'.{. X",
"4.7.:.| o.:.4.:.o...' Z & X m U.U.U.U.U.U.U.Y.W.4X5XW.M.= X = ] {.OXoX{.`.t.y.'.{.'.`.",
"5.X.)  .:.7.q.q.9.;._ N d.4 0 M.A.A.A.A.A.A.S.I.Q.!.I.b.- C C D -.0._.{. X X XOX Xt.5.",
" .'  .:.0.q._._.e.7._ B J.d.2 p.p.p.p.p.p.p.p.p.x.x.p.0 3 G.G.H *.:.t.OX%X$X%XOX`.4.+.",
"4.:.;.5.r.`._._.y.e.$.N l.9 O > 2 2 2 2 2 2 2 2 2 2 2 : * g.g.H 6.0._.OX$X%XOX X0.4.5.",
"t.q.0.q.t.`.`._._._.&.6 9 - . w q . q t +   q t + . w @ X 4 5 L e._._.OXOXOX{.t.7.0.q.",
"t.q.q.t.t._._._.`._.w.A &   + g f + f h w . f h w q g t   X = ] `.{._.e._.`.0.5.0.t._.",
"7.0.q.q.q.q.q.t.y._.<.G C , + x k + k Q w . k ! r q b y o M M I [.{.`.5.:.+.;.8.t.`.'.",
"+.5.8.0.7.:.5.0.e.t.[ 7 z.4 . a p   p c +   p c + . s # X d.g.A ~.OX{.t.4.o.4.q.`.'.'.",
"` ;.5.7.:.;.5.0.0.9.D d d % $ $ $ % p p % % % $ $ $ $ $ % d Z Z ,.OX.X_.4.;.7.t.'.|.'.",
"E ' +.+.;.4.5.5.7.9.&.&.%.} _ _ $.&.<.=.$._ _ _ $.$.%.&.<.2.2.1.w.{.{.t.5.5.0.e.~.)._.",
"E E )  .O.:.o.o.:.9.0.0.7.-.;.>.9.e.t.q.o.' ..9.t._._._.{.{.{.{.{._.9.O.5.0.q.~.~.~.y."
};
