/* XPM */
static char *_c33355b07ae43af960e8ddebe9721f5AtfsftZ6CLTfhtvO[] = {
/* columns rows colors chars-per-pixel */
"43 50 217 2 ",
"   c #000A17",
".  c #061628",
"X  c #031A36",
"o  c #0A253A",
"O  c #1F2935",
"+  c #2F2E30",
"@  c #431E25",
"#  c #54493D",
"$  c #072948",
"%  c #0A2B4C",
"&  c #1D354C",
"*  c #0C385E",
"=  c #153C52",
"-  c #293949",
";  c #353D44",
":  c #213852",
">  c #083968",
",  c #133C6C",
"<  c #073D77",
"1  c #553B4E",
"2  c #19455E",
"3  c #394345",
"4  c #2F4E5B",
"5  c #384555",
"6  c #0B426D",
"7  c #134968",
"8  c #16516E",
"9  c #0C4573",
"0  c #0E4978",
"q  c #164976",
"w  c #165479",
"e  c #2A4B6E",
"r  c #344B66",
"t  c #3C5669",
"y  c #29597A",
"u  c #3B5674",
"i  c #326170",
"p  c #464847",
"a  c #5B5248",
"s  c #454A5A",
"d  c #4C565C",
"f  c #565958",
"g  c #675C4E",
"h  c #4D655E",
"j  c #76694F",
"k  c #67635C",
"l  c #776859",
"z  c #495869",
"x  c #565D65",
"c  c #485C72",
"v  c #4D6161",
"b  c #576667",
"n  c #4A6B7B",
"m  c #566676",
"M  c #6D6A67",
"N  c #6A6E6F",
"B  c #777469",
"V  c #6B7375",
"C  c #797977",
"Z  c #8E6833",
"A  c #846A48",
"S  c #997646",
"D  c #816D56",
"F  c #85735C",
"G  c #977C55",
"H  c #A17D4A",
"J  c #8A7965",
"K  c #8D7D6B",
"L  c #937D67",
"P  c #867D72",
"I  c #75847E",
"U  c #99825C",
"Y  c #A8824C",
"T  c #AB8652",
"R  c #A88759",
"E  c #B28B56",
"W  c #B38D5A",
"Q  c #B6915E",
"!  c #B9925E",
"~  c #968166",
"^  c #94846C",
"/  c #8A8775",
"(  c #998973",
")  c #A88C66",
"_  c #AE9168",
"`  c #BB9662",
"'  c #BE9864",
"]  c #B5966A",
"[  c #A58E76",
"{  c #A8977D",
"}  c #B39775",
"|  c #BB9C71",
" . c #B49A7C",
".. c #C09B66",
"X. c #C39E6A",
"o. c #C5A16D",
"O. c #C9A36E",
"+. c #C4A374",
"@. c #CAA672",
"#. c #CEA974",
"$. c #C5A679",
"%. c #CDAB7B",
"&. c #D1AC77",
"*. c #D2AD7A",
"=. c #D6B27D",
"-. c #D8B37F",
";. c #013E83",
":. c #044283",
">. c #0D4483",
",. c #03448C",
"<. c #154B88",
"1. c #175A82",
"2. c #195D83",
"3. c #004593",
"4. c #064997",
"5. c #024B9C",
"6. c #0E519D",
"7. c #165399",
"8. c #28568A",
"9. c #2D5C8F",
"0. c #1D6384",
"q. c #1A628A",
"w. c #1D688B",
"e. c #1D6993",
"r. c #1F709E",
"t. c #2F6C8E",
"y. c #247399",
"u. c #014DA3",
"i. c #004FAB",
"p. c #0252AD",
"a. c #0B55A9",
"s. c #1657A2",
"d. c #0154B3",
"f. c #0B5BB7",
"g. c #0056B9",
"h. c #0359BC",
"j. c #215DA2",
"k. c #2261A9",
"l. c #237AA6",
"z. c #247AA5",
"x. c #4D6F89",
"c. c #627280",
"v. c #025CC4",
"b. c #095FC2",
"n. c #005EC9",
"m. c #0561CB",
"M. c #0063D4",
"N. c #0066DB",
"B. c #0069DF",
"V. c #006AE3",
"C. c #006EEB",
"Z. c #0171EF",
"A. c #0172F1",
"S. c #2C82AA",
"D. c #3585AD",
"F. c #2988B6",
"G. c #298CBD",
"H. c #2C96C9",
"J. c #2F97C9",
"K. c #3299CC",
"L. c #2D9DD2",
"P. c #2FA0D7",
"I. c #2EA3DD",
"U. c #30A0D6",
"Y. c #31A5DD",
"T. c #2EA6E0",
"R. c #32ABE5",
"E. c #33AFEA",
"W. c #34B1EE",
"Q. c #38B4EF",
"!. c #36B6F3",
"~. c #37B8F5",
"^. c #37BAFA",
"/. c #38BEFE",
"(. c #3AC1FF",
"). c #8B8A89",
"_. c #93918B",
"`. c #BC9E81",
"'. c #B9A586",
"]. c #B5B5B4",
"[. c #C8AA86",
"{. c #CFB28C",
"}. c #D5B484",
"|. c #DAB683",
" X c #DDBA86",
".X c #D4B68A",
"XX c #D8B788",
"oX c #DCBB8B",
"OX c #D2B191",
"+X c #DDBD92",
"@X c #DCB997",
"#X c #E1BE8B",
"$X c #E1BE96",
"%X c #DCC094",
"&X c #E3C18D",
"*X c #E4C493",
"=X c #E8C795",
"-X c #E9C996",
";X c #E6C699",
":X c #E8C39F",
">X c #E7C89A",
",X c #EBCB9C",
"<X c #EAC5A0",
"1X c #EDCFA1",
"2X c #F4CDA7",
"3X c #EED1A3",
"4X c #F2D3A4",
"5X c #FDD4AD",
"6X c #F6D9AA",
"7X c #F7DAAB",
"8X c #FFD7B0",
"9X c #FFD8B1",
"0X c #BFC0C1",
"qX c gray79",
"wX c #D6D6D6",
"eX c #E9E9E9",
"rX c #FEFEFE",
/* pixels */
"*. X&X&X=X&X=X=X=X&X-.=.#X#X&X&X=X*X&X} t L.!.(.W.F.V %X7X7X4X4X7X7X7X9X7X7X4X4X>X&X&X",
" X#X&X&X&X=X&X#X-.#.O.&.#X#X=X=X#X%.B & % z.W.(.(./.J.I ,X7X7X7X7X4X4X4X4X4X,X,X&X*X&X",
"#X#X-.-.-.#X-.=.X.O.#.&.&.-.-.*.M 8.m.B.m.;.1.R.(./.(.S. .7X7X7X4X1X,X,X,X,X*X&X-X-X,X",
"*.&.*.*.&.X.' ..O.&.-.#X-.-.| z f.C.A.A.A.V.3.q.Q./.(.Y.h .X4X4X4X4X,X,X;XoX X-X-X1X4X",
"E Y E ! E E ' O.*.#X#X=X-X.Xm n.A.A.Z.Z.Z.A.V.:.z.!.L.z.o a .X,X,X,X,X-X*X&X=X=X,X1X4X",
"E E E E ..X.O.=.|.#X&X-X#XN v.A.Z.A.Z.Z.Z.Z.Z.M.< 0 0 $ % 3.B }. X=X1X-X=X-X,X,X-X;X*X",
"......O.&.-.-.-.#X#X*X=X`.a.C.A.Z.Z.A.Z.Z.Z.Z.Z.v.3.5.5.5.p.9.} |. X*X*X*X,X1X4X4X4X4X",
"#.O.#.#.=.-.-.-.#X#X&X}.n B.A.A.Z.Z.Z.Z.Z.Z.Z.A.u.7 r.r.e.> i.N XX XXX&X-X4X4X4X7X7X7X",
"-.&.-.-.-.-.#X#X-.-.-.R a.A.A.A.A.A.A.A.C.A.A.A.5.r.(.(./.0.d.j.$.%X*X-X1X1X4X4X3X,X;X",
"-.-.-.-.#X&X#X-.-.-.#.g ;.v.A.A.C.C.A.A.A.A.A.A.5.e.^./.^.w f.m./ -X>X1X4X,X-X;X X|.|.",
"-. X-.-. X&X&X&X#X#Xo.3 2.9 n.A.A.A.A.C.M.v.n.V.g.> w e.2.> v.V.m &X,X1X-X*XoXXXoXoX&X",
"-. X X X-. X&X-X=X-XU y.^.F.;.Z.A.C.g., $ X X $ 3.g.p.p.u.> > M.8.{.-X&X XoX&X*X=X=X-X",
"-.-.-.-.-.-.#X&X=X&XB e.K.W.0 N.C.4.f g M ).V O   < N.A.p.- + u.k.[.-X&X*X=X>X-X,X,X,X",
"..O.O.&.#...E E o.' h ; t !.w v.u.k } ).eXrX_.C p + , ;.& ).x ;.k..X3X3X1X1X1X1X1X1X4X",
"E E ! ! ! E E E E Y 4 + 1 !.w.u.r @XL ].rXwXP eXC D _.1 C M x i.k..X4X4X3X1X1X>X-X-X,X",
"....! E ! ..O...o.R 4 @ 1 Q.q.< P 5XL wXrX0X).qX- l 9XK _.d p i.j.[.,X1X1X-X*XXX|. X X",
"&.#.@.@.@.@.#.#.*.o.v + s Q.w , `.2XJ eXrX].+ ; X P 8Xl O 5 s i.<.+.#XoX*XoX#X+X&XoXXX",
"|.=.=.=.=.=.}.=.=. X/ i D.R.>.>.OX2XF eXrX0X& . $ L 8Xl X s s u.4 | }.XX+X*X,X1X,X,X;X",
"#X#X X|.#X#X XXXXX&X%.t.W.z.3.6.L 5XP ].eXwXs X ; OX5X[ . f ; 5.N }.XXoX;X,X3X4X4X4X4X",
"#X#X X#X#X X X X&X&X&Xg 7 < M.d.M 5XOXg M C 1 O L 5X5X[.D F l , V *X#XXX#X>X3X3X7X4X4X",
"=.|.#X#X X X X&XoX*.~ 4 $ d.A.N.z @X5X<XOXOXOX@X5X9X2X} $X8X@X1 / ,X-XoX}.}..X+X1X3X3X",
"X.#.-.-.|.|.}.] U b S.R.e.,.Z.Z.4.K 5X5X5X:X`.`.`.`.@X8X8X8X`.O C .X1X,X*X X}.}.XX*X>X",
"T E ....@.X.M 2.* r.(.(.R.7 p.Z.N.e [.5X5XOXJ F J J .X8X8X$Xp 8 L.n ^ +X1X;X*XoX%.$.@.",
"` ` ! ..` k p.Z.p.w.(.(.(.G.6 g.A.d.x 2X8X5X5X5X5X2X5X5X@Xa o J./.2.>.x.'.1X,X+X.X%.%.",
"@.@.@.@.F s.Z.A.M.0 R./././.F.* ;.5.5 ,X9X9X9X7X8X2X$X[ # * F.^.Y.0 B.N.8.[.1X*XoXoXoX",
"|.=.}.+.9.B.Z.Z.Z.3.z./././.(.G.= o + / [  . .[ K a 4 t.F.T.^./.y.5.Z.A.m.b XXoX+X*X$X",
"#X#X#XB h.A.Z.Z.A.m.6 P.^.~.(.(.P.7 F.y.y i y y % 0.R.^./.(.(.I.9 M.A.Z.C.7._ #X;X;X;X",
"|. X=.m V.Z.Z.Z.Z.Z.u.q t.t.E.(.^.S.w P.^.^.Y.w.0.E././.~./.~.q.u.A.Z.Z.A.m.{ -X,X>X,X",
"|.XX} e V.Z.Z.Z.Z.A.V.r R b I./.(.!.z.w 0.0.w y.E././.R.t.D.y.9 V.Z.Z.Z.A.n.C 1X1X1X1X",
"@.@.R , C.Z.Z.Z.A.A.n.z _ v T././.(.^.P.z.z.H.~./././.I.h ^ = n.A.Z.Z.Z.A.n.v 1X3X3X1X",
"` ' Q u V.A.Z.Z.C.C.>.j o.h I.(././.(.^././././././.(.I.d [.m V.Z.Z.Z.Z.A.b./ 1X3X3X1X",
"O.#.&.m V.A.Z.Z.A.A.n.b @.b I././././.(././.^./././.(.I.v ] u N.A.Z.Z.Z.A.m.).1X1X<X1X",
"=.|.+.8.C.Z.Z.Z.Z.A.V.c *.b K.!.!.~.^.^.^.(.(.(.(.(.(.I.v N b.Z.Z.Z.Z.Z.Z.C.x.@X:X;X;X",
" X X| 7.A.Z.Z.Z.Z.A.m./ L : 9 w w 0 w e.r.z.G.G.G.G.H.z.f m N.Z.Z.Z.Z.Z.Z.Z.s.} *XoX+X",
"=.|.| y C.Z.Z.Z.Z.A.M.V b v.M.m.h.d.u.5.5.5.5.,.,.,.:.,.2 J s.C.Z.Z.Z.Z.Z.Z.6.~ *.}.XX",
"E Q ! f n.A.Z.A.Z.A.M.z m V.A.A.A.A.A.A.Z.A.Z.Z.C.C.C.C.<. .c.V.A.Z.Z.Z.Z.C.y ) +.+.*.",
"Z Y T G r M.A.A.A.N.8.G x N.A.A.Z.Z.Z.Z.Z.Z.Z.Z.A.Z.C.C.t.XXc.V.A.Z.Z.Z.Z.b.B %.%.#.@.",
"E W ` X.R c 6.p.i.r A H a :.v.C.A.A.Z.Z.Z.Z.Z.Z.A.A.C.v.z }.[ s.V.C.C.B.f.V }.XXXXXX.X",
"` ..o.O.@.` j a g T H A f w.9 < h.C.A.Z.Z.Z.Z.Z.B.d.< 6 ; R | ^ u < , u / .X$X#X$X*X$X",
"' X.o.O.Q Y T E ..G t 9 8 !.E.z.9 0 M.Z.A.Z.Z.h.< w F.R.F.p p l ) [ [ [.;X;X*X$X*X;X;X",
"o.! E H S T ! ' G e N.V.;.z.^./.E.r.6 p.M.M.4.7 G.!./.(.R.* i.u.t | oX*X;X*X*X;X,X>X,X",
"E Y H Y E ' o.o.c M.A.A.M.< F./.(.^.G.= : : 2 Y./././.Q.0.4.Z.Z.v.x $.oX$X;X1X,X,X;X>X",
"' ' ' ! ` o.#.L a.Z.Z.Z.A.n.9 K.(.(.G.l Q _ B U././.!.e.:.V.Z.Z.C.h.B XX$X*X*X;X;X>X>X",
"=.&.#.O.#.#.o.z V.Z.Z.Z.A.A.d.7 L.Y.N | %.=.$.n E.E.q.:.N.A.A.Z.A.C.7.| $X#X$X$X*X$X$X",
"&.&.#.#.O.L f <.C.Z.A.A.A.A.C.p.6 u ] }.}.XX#X( t.w ,.B.A.Z.Z.Z.Z.A.h.k } $.XXXXXX.X=.",
"o.O.#.R x s.M.V.A.Z.Z.C.C.A.C.A.p.- $.}.XXXXoX] & u.C.Z.A.Z.Z.Z.Z.A.B.6.<.s ) o.' Q W ",
"Q ' _ u n.C.A.A.A.Z.Z.A.Z.A.A.A.A.9.$.XXXXXX|.^ f.A.Z.Z.Z.Z.Z.Z.Z.Z.Z.Z.C.M.y G T W _ ",
"Z T v M.A.Z.Z.Z.Z.Z.Z.Z.Z.A.C.A.A.t.$.}.*.*.%.K m.A.Z.Z.Z.Z.Z.Z.Z.Z.Z.Z.A.C.N.c ) X.o.",
"Z # d.A.A.A.C.A.A.C.A.Z.Z.Z.Z.Z.A.j.] %.@.+.` j p.Z.Z.Z.Z.Z.Z.Z.Z.Z.A.Z.Z.Z.A.b.M @.%.",
"Z 4 V.A.C.A.A.A.A.C.A.A.Z.Z.Z.Z.A.4.D @.| W ` A ,.A.Z.Z.Z.Z.Z.Z.Z.Z.Z.Z.Z.Z.A.C.9.| }."
};
