/* XPM */
static char * wall_xpm[] = {
"50 50 111 2",
"  	c #DDB985",
". 	c #D2AE7A",
"+ 	c #DBB783",
"@ 	c #D0AD7D",
"# 	c #D6B27E",
"$ 	c #CCA672",
"% 	c #DAB581",
"& 	c #D5B07C",
"* 	c #C6A372",
"= 	c #C9A470",
"- 	c #CEA974",
"; 	c #D7B482",
"> 	c #BE9A68",
", 	c #C49E6A",
"' 	c #D0AB78",
") 	c #DFBB87",
"! 	c #C19D6C",
"~ 	c #C19B68",
"{ 	c #C3A06F",
"] 	c #BA9665",
"^ 	c #E0BC88",
"/ 	c #CDAA79",
"( 	c #CAA877",
"_ 	c #E2BF8B",
": 	c #E9C898",
"< 	c #EDCB99",
"[ 	c #D4B383",
"} 	c #EBCA9A",
"| 	c #E0C091",
"1 	c #E3C290",
"2 	c #DDBC8D",
"3 	c #E6C798",
"4 	c #DFBE8F",
"5 	c #E5C597",
"6 	c #EDCE9F",
"7 	c #F5D5A6",
"8 	c #E9C99B",
"9 	c #F7D8A9",
"0 	c #EFD0A1",
"a 	c #F3D4A5",
"b 	c #F9DBAC",
"c 	c #EBCC9D",
"d 	c #E4C494",
"e 	c #F0D1A2",
"f 	c #F0CF9E",
"g 	c #FCDFB0",
"h 	c #F6D7A7",
"i 	c #F2D2A3",
"j 	c #F3D3A3",
"k 	c #EDCC9C",
"l 	c #E8C795",
"m 	c #E8C694",
"n 	c #AD8754",
"o 	c #D2AF7D",
"p 	c #D8B37F",
"q 	c #E7C28F",
"r 	c #E0BD8B",
"s 	c #F2D1A0",
"t 	c #DBBA8A",
"u 	c #D7B686",
"v 	c #E2C293",
"w 	c #E6C593",
"x 	c #E5C391",
"y 	c #E4C08D",
"z 	c #C7A575",
"A 	c #D3B181",
"B 	c #E2C08F",
"C 	c #D9B888",
"D 	c #CFAF81",
"E 	c #ECCA96",
"F 	c #BA9461",
"G 	c #CDAC7C",
"H 	c #DDBC8A",
"I 	c #EBC894",
"J 	c #B79260",
"K 	c #EFCD9B",
"L 	c #C6A16D",
"M 	c #BD9864",
"N 	c #B5905D",
"O 	c #E9C591",
"P 	c #B38D5A",
"Q 	c #B4A482",
"R 	c #A29372",
"S 	c #908567",
"T 	c #7A785D",
"U 	c #646952",
"V 	c #4D5946",
"W 	c #1F4437",
"X 	c #21503C",
"Y 	c #246541",
"Z 	c #2A7542",
"` 	c #2D7C42",
" .	c #286D41",
"..	c #225B3F",
"+.	c #1E3029",
"@.	c #318441",
"#.	c #348C41",
"$.	c #44AC38",
"%.	c #49B634",
"&.	c #3FA13D",
"*.	c #3A9641",
"=.	c #97713E",
"-.	c #8F6836",
";.	c #A88350",
">.	c #A37E4B",
",.	c #B08B58",
"'.	c #9E7845",
").	c #5C352F",
"!.	c #774936",
"~.	c #855A2D",
"{.	c #FFFFFF",
"; # o # / . / ( o o p ;   1 d d 5 c e f 6 e e i i i a a 7 a 7 i 6 6 6 6 6 c 0 k : } } : } : } } 0 e ",
"_ r [ 4 t ; A [ ; + o C H t v 1 d 8 : k 8 } 8 6 i i 6 7 7 a e 6 i 0 6 c 6 8 : : w v w x v : l k k k ",
"1 2 C t t 2 u t u t 2 t 4 d v 5 d w 3 3 3 d 8 : c 8 6 0 6 6 6 6 0 c } : d l d C u [ ; @ ; C 4 v w d ",
"1 v d d d v | 1 | 1 1 l d 5 3 | d 1 4 v d v | d 5 3 3 c c 6 c c 6 : : v 2 u [ [ u [ u + # # o @ ' / ",
": 3 } : } 3 d l d d 5 8 c 8 3 | d d | 4 2 4 4 4 4 | d 5 3 3 3 3 : B 4 u C B 2 t C t t t     # ; ; . ",
"6 6 0 0 : c : c 8 c c 6 : 8 3 d 5 5 | 2 4 t D G D [ C t C 2 t t u 2 4 1 3 B 4 v d v 4 x B H t u ;   ",
"0 i c 0 6 0 0 6 6 6 6 6 6 8 3 3 d d v v ( S V ....V S { u ; C z R R R | 3 3 c : 5 d } d d v 1 B 1 r ",
"6 6 0 6 6 6 e e 6 7 i 0 c c d d 5 d v z V ..@.` @.Z X U Q R T U #.#.@.T Q d } 6 6 c 6 6 c c : : w w ",
"6 6 6 6 i i a i i a a i 6 c : | 2 4 Q V X Y Z Y Z ` Y Y  .#.&.$.%.&.*.Z X U 2 0 0 e i 0 6 6 6 k : l ",
"6 8 0 6 e a e a i a a e c v R T T T U ` Y X .. ...Y @.$.&.$.%.&.*.` Y U R R C i i i i e a i i 0 6 c ",
"0 6 c 6 c i e 0 a i c D T V #.*.&.&.$.%.&.#.....X ` $.&.&.$.*.@.Z ..X U u 6 h h 7 i 7 a 7 a i i 7 i ",
"8 } 6 8 6 6 c 6 6 8 S ..` *.$.$.%.%.%.$.$.&.#. ...*.&.#.&.#.Z Y X W X ..X S D a 7 7 9 h h 9 7 h 7 i ",
"8 : 8 } 8 c 6 8 5 S ..Z ` #.&.&.$.%.%.$.&.#.` Z Z *.` #.@. ...W W ....Y ` Z U [ 7 a 7 7 a 7 h a 7 h ",
"8 3 8 : : d c : Q W X X .. .Z @.#.#.*.*.&.*.`  .` ` ` Z  .Z Z  .Z X X ..Z @. .V [ i a i i 7 h 7 7 a ",
"3 5 5 d d v d 2 S R Q R S X ....Y  .Z Z @.` Z Z  . .Z  .Z #.*.$.$.&.*.X X ..Y X V t c 6 e i i e i 7 ",
"| | | C v | 2 t [ t R T ..Y ..X X X ....Y  . . . .Y Y Y  . .@.#.$.%.%.#.U U V ..X R 8 6 0 0 6 0 e a ",
"| | 4 4 t t C @ z T  . ...Y  .....Y @.@.@.#. . . .Y Y  .Z @.*.*.&.$.%.%.*.T R V X V C 8 3 c c 6 0 6 ",
"| | t [ G ! { > T Y `  .` `  ...*.&.&.#.` @.*.` Z  . .`  .Y ` #.&.%.%.%.$.*.T { S V S 2 v 5 } 8 6 6 ",
"u o @ * ( @ ( ! X ` @.#.Z ..X #.%.$.#.#.&.$.*.` Y Z  .` @.....Y @.&.$.$.&.&.` T D z ] ! { / [ | d : ",
"u / G @ ( { * T Y #.@.Y ..X @.%.%.*.#.$.%.&.` Y ..` @.Z &.` X X Y @.*.*.*.*.#.` T G @ * * > J P N > ",
"[ G / @ G [ { V Z Z ..X W  .&.%.%.%.%.%.&.@.Y .. .` &.@.*.$.Z X X .. .` #.*.#.@...R @ @ ( z * ( G * ",
"A / / [ o D S ..Y X V U V *.$.$.%.%.$.*.` Y X X  .@.$.#.*.%.&. .X W ..Y  .Z ` Z  .U [ @ / G / ( z ! ",
"[ @ ; @ G { X X V T { T ` &.&.%.$.&.#.` Y X W X Y @.$.%.&.%.$.@.....X X ..U X X Y ..R [ o A @ ( ( @ ",
"/ / D C C D W V R t z V #.*.*.&.*.@.` Y X W X X ..@.&.%.&.%.%.&...Y ......U Q R V X T u 2 t C 4 2 t ",
"@ u u 2 t D V Q 2 d Q ..@.*.#.`  . .Y ..X X Y X X Z *.%.$.$.%.&.Y .. .Y ....S t 2 Q R 2 4 2 2 4 t 2 ",
"[ t 2 2 t C Q 5 8 v T Y Z @.`  ...X X Y Y Y Z X X Y #.$.$.$.%.&.Y .. .Z Y .. .T u t 4 2 2 d v v v t ",
"t 2 4 4 t 5 d 5 5 t V  .Z  ...U R T Y ` ..Z ` ..W X @.&.%.%.%.&.Y X Y #.`  .Z V ! 4 v | 3 v v | 4 2 ",
"v 4 2 | v 5 5 d v R .. .Y U Q v [ V @.Y Y @.` X +.+.Z *.$.$.$.*.Y W X ` #.@.Z Z S C 3 d d v 5 | 5 3 ",
"2 d v 5 | d | | | T X V T 2 8 3 T ` @.Y ` @.Y W +.+...#.&.&.*.*.V T W X Z @.@.@. .G 8 d 3 5 c c 5 5 ",
"2 2 | 5 5 d | 5 | T V Q 3 6 6 D V @.` ` #.Z ..+.).).W Z *.*.#.@.V G R U X Y `  ...D 3 c } c c 8 3 : ",
": 3 d d 3 3 : 8 d R Q 3 } 8 6 R  .#.` @.` ..V ).).).+.Y @.*.@.@.V D 4 G T V Y Y X G c c 3 3 5 5 5 3 ",
": 3 d d c : c c c 8 c c 6 0 5 T Z @.@.@. .W T ~.!.!.).W ` #.` ` V C | : 3 D U Y X D 6 8 6 c 8 0 0 } ",
"3 : 3 5 3 d 3 3 : c c c c 6 t X ` ` @. ...U S !.!.!.).+...` `  .V t 5 d 3 6 u U X D 0 c 8 c c c 6 e ",
"d : d | d d 3 c 6 c c 8 6 6 2 X Z  . ...U t R !.!.~.!.).+.Y ` Y T v 8 3 6 6 c [ U D } : 6 c 6 e 0 6 ",
"5 d d d | 5 3 8 : 3 8 : c 6 C X Y Y ..U 4 c ;.!.~.~.!.).).X  .X G c 8 c } 6 0 e t 8 i e 6 c 6 6 6 8 ",
"v v v d | | d d d 5 3 } 8 c C X Y Y X D e [ ).!.~.-.!.~.-.T X U t 0 6 6 e e e i e 0 i e e 6 6 6 6 c ",
"| | | 2 2 t 2 | | | v d d v u V ..X S d 0 D !.~.~.~.!.-.!.S V S e e i 6 e e e i 6 i e 6 e 0 6 0 6 0 ",
"| u u A G G / A [ 2 v | d v | R X S 4 3 8 G ).~.!.~.-.!.).,.D Q 7 a e i e a 6 0 6 e e 6 i 7 i 6 0 6 ",
"| 4 2 u [ A @ G / * ( u u 2 4 R W D v v d z ).!.!.-.=.~.!.-.| 6 0 e i a e 0 0 i 0 0 6 6 6 6 e i i 6 ",
": 5 v v 4 t u [ D G z * / A u R R 4 d | 2 '.).-.!.!.!.!.!.;.6 e 6 i a i 0 6 6 0 c 6 6 0 6 c c e i 0 ",
"c } 3 d | 2 2 [ u t A A ( * * * z u 2 t | A -.).~.=.~.!.!.;.v 0 7 i i c e 6 6 6 6 c c 6 c 6 c 6 6 c ",
"} 8 6 c 3 d | t t C [ ; A / G * * / @ t C | A -.!.~.).!.G | 3 6 6 c 0 6 } 6 c 6 6 c : 6 c 8 : 8 c 6 ",
"8 c c c c : c : | 4 | C u u o / G G @ D [ t 2 ,.'.'.!.( 8 3 8 6 8 3 6 c 6 8 c c c 8 c : 6 c d 3 } 3 ",
"6 c 6 0 e 6 8 6 c v 2 v t C [ u A u / ( * A u z C t @ 3 5 3 8 3 8 5 8 c c } : 8 } 8 : 3 5 3 d 5 8 3 ",
"8 6 c e i i 0 0 c 8 d d 2 4 2 u u @ o @ / ! ! z A t 2 4 2 | 5 | 5 3 : 8 c 8 3 3 | 3 | 3 | d 5 v 5 v ",
"3 8 8 8 6 6 e 6 c c } 3 3 3 | 4 C u o D G / / ! ] F { ( t 4 | d d 5 5 d 3 v : | 4 | | v | 4 t 2 2 u ",
"| 3 6 6 c 6 8 8 8 c 3 c 8 d v t C | u C t u * { { ! F ] F { @ 2 4 v 4 4 4 | v v 4 2 4 u u C u u C [ ",
"4 d 3 d : c 6 e 6 6 0 6 } 3 : 5 | | 2 t C o @ / / / z z { ! J F > > > > ] * J { { @ o o [ u t u 4 4 ",
"C C v 5 5 c 6 c 6 e e 0 6 c 6 3 3 } | 4 2 t [ @ @ / ( ! { ! { ! { ] J J ] N ,.P > ] * @ A u ; o A [ ",
"@ C 2 v d } 3 8 3 c 6 6 6 c 3 } } } | 4 2 4 2 t @ G @ @ z z * > ! ! ! { { ! ! * ! * { * z A [ A [ u "};
